<?xml version="1.0" encoding="UTF-8" standalone="no"?>
<!DOCTYPE svg PUBLIC "-//W3C//DTD SVG 1.1//EN" "http://www.w3.org/Graphics/SVG/1.1/DTD/svg11.dtd">
<svg width="100%" height="100%" viewBox="0 0 2048 2048" version="1.1" xmlns="http://www.w3.org/2000/svg" xmlns:xlink="http://www.w3.org/1999/xlink" xml:space="preserve" xmlns:serif="http://www.serif.com/" style="fill-rule:evenodd;clip-rule:evenodd;stroke-linecap:round;stroke-linejoin:round;stroke-miterlimit:1.5;">
    <rect x="-92.847" y="-42.853" width="2217.62" height="2111.16" style="fill:url(#_Linear1);"/>
    <g transform="matrix(1,0,0,1,-102.254,697.482)">
        <g transform="matrix(1200,0,0,1200,392.854,658.068)">
            <path d="M0.347,-0L0.493,-0L0.616,-0.74L0.47,-0.74L0.417,-0.42L0.41,-0.42C0.395,-0.488 0.356,-0.528 0.275,-0.528C0.132,-0.528 0.038,-0.393 0.038,-0.188C0.038,-0.067 0.08,0.012 0.189,0.012C0.277,0.012 0.323,-0.044 0.362,-0.123L0.367,-0.123L0.347,-0ZM0.254,-0.101C0.204,-0.101 0.187,-0.139 0.186,-0.188C0.186,-0.205 0.188,-0.221 0.19,-0.233L0.2,-0.293C0.213,-0.371 0.25,-0.415 0.322,-0.415C0.385,-0.415 0.411,-0.384 0.402,-0.33L0.388,-0.247C0.381,-0.204 0.357,-0.169 0.341,-0.15C0.317,-0.12 0.29,-0.101 0.254,-0.101Z" style="fill:white;fill-rule:nonzero;"/>
        </g>
        <g transform="matrix(1200,0,0,1200,1112.85,658.068)">
            <path d="M0.106,-0L0.16,-0.324C0.163,-0.342 0.17,-0.366 0.184,-0.389C0.2,-0.415 0.215,-0.421 0.23,-0.421C0.249,-0.421 0.259,-0.408 0.259,-0.383C0.259,-0.369 0.257,-0.353 0.255,-0.341L0.198,-0L0.316,-0L0.368,-0.312C0.374,-0.348 0.381,-0.369 0.393,-0.389C0.408,-0.414 0.423,-0.421 0.44,-0.421C0.458,-0.421 0.469,-0.406 0.469,-0.382C0.469,-0.369 0.467,-0.353 0.465,-0.341L0.408,-0L0.526,-0L0.585,-0.356C0.589,-0.38 0.592,-0.409 0.592,-0.432C0.592,-0.495 0.563,-0.528 0.504,-0.528C0.441,-0.528 0.405,-0.484 0.38,-0.426L0.375,-0.426C0.382,-0.494 0.35,-0.528 0.297,-0.528C0.243,-0.528 0.206,-0.486 0.183,-0.426L0.177,-0.426L0.192,-0.516L0.074,-0.516L-0.012,-0L0.106,-0Z" style="fill:white;fill-rule:nonzero;"/>
        </g>
    </g>
    <path d="M336.2,1565.03C336.2,1565.03 1564.17,1392.42 1721,1565.03" style="fill:rgb(235,235,235);stroke:rgb(0,116,232);stroke-width:200px;"/>
    <defs>
        <linearGradient id="_Linear1" x1="0" y1="0" x2="1" y2="0" gradientUnits="userSpaceOnUse" gradientTransform="matrix(1873.02,1885.52,-1885.52,1873.02,82.1343,82.8038)"><stop offset="0" style="stop-color:rgb(0,116,232);stop-opacity:1"/><stop offset="1" style="stop-color:rgb(255,67,135);stop-opacity:1"/></linearGradient>
    </defs>
</svg>
